<svg xmlns="http://www.w3.org/2000/svg" viewBox="0 0 60 60"><title>suit-logo</title><g id="Layer_2" data-name="Layer 2"><g id="logo"><g id="suit"><path d="M11.37,11.46C7.6,17.56,3.82,23,0,26.92A55,55,0,0,1,15.53,37.86l5.92-3.41-2.72,6.1a25.08,25.08,0,0,1,13,12.21c-2.26-12.56-7.44-24.43-19.85-34.64Z"/><path d="M12.3,9.39,13,16.9l10.71,7.29c-3.61-5.81-.8-8.87,5.19-10.57A40.28,40.28,0,0,1,12.3,9.39Z"/><path d="M38.54,54.65a65,65,0,0,1,17,5.35,35.94,35.94,0,0,1,4.05-15.27C49.92,37.93,42.27,30.5,37.3,22.21c3-8.32-1.88-8.76-10-6C21.34,19,22.49,21.35,30,23.33c1.89.63,3.36,1.4,3.47,2.68Z"/><path d="M30,13.06A35.34,35.34,0,0,0,40,0l4.27,5.86-3.6,12.39C40.18,13,36.54,11.33,30,13.06Z"/><path d="M42,1.11A69.69,69.69,0,0,0,60,2.6c-1.58,6.79-2.31,13.17-1.57,18.85l-6.14,2.3,6.29,1.85a27.26,27.26,0,0,0,1,17.66C51.88,35.37,46,24.78,45.61,6Z"/></g></g></g></svg>